<svg xmlns="http://www.w3.org/2000/svg" width="250" height="61.991" viewBox="0 0 250 61.991"><g id="logo" transform="translate(-92.452 -697.683)"><g id="Group_1389" data-name="Group 1389" transform="translate(161.196 742.5)"><path id="Path_1750" data-name="Path 1750" d="M229.939,794.764v-7.133a.093.093,0,0,1,.105-.1h2.476a2.4,2.4,0,0,1,1.652.545,1.877,1.877,0,0,1,.613,1.479v3.294a1.877,1.877,0,0,1-.613,1.479,2.4,2.4,0,0,1-1.652.545h-2.476A.093.093,0,0,1,229.939,794.764Zm.787-.545h1.826a1.48,1.48,0,0,0,1.086-.4,1.435,1.435,0,0,0,.4-1.07v-3.1a1.376,1.376,0,0,0-1.489-1.479h-1.826a.037.037,0,0,0-.042.042v5.959A.036.036,0,0,0,230.726,794.219Z" transform="translate(-229.939 -787.421)" fill="#fff"></path><path id="Path_1751" data-name="Path 1751" d="M242.611,788.323a.616.616,0,0,1,0-.844.623.623,0,0,1,.839,0,.6.6,0,0,1-.839.844Zm.022,6.326v-5.1a.093.093,0,0,1,.105-.105h.534a.093.093,0,0,1,.105.105v5.1a.092.092,0,0,1-.105.1h-.534A.092.092,0,0,1,242.633,794.649Z" transform="translate(-236.191 -787.316)" fill="#fff"></path><path id="Path_1752" data-name="Path 1752" d="M251.141,791.512h.535a.093.093,0,0,1,.1.1v5.025a2.08,2.08,0,0,1-.676,1.721,2.89,2.89,0,0,1-1.862.545c-.161,0-.283,0-.367-.01a.1.1,0,0,1-.1-.116l.021-.482a.1.1,0,0,1,.031-.079.079.079,0,0,1,.074-.016l.283.01a2.142,2.142,0,0,0,1.417-.382,1.526,1.526,0,0,0,.44-1.212v-.388a.024.024,0,0,0-.017-.026c-.01,0-.022,0-.036.015a1.627,1.627,0,0,1-1.374.63,2.077,2.077,0,0,1-1.213-.367,1.77,1.77,0,0,1-.707-1.039,4.869,4.869,0,0,1-.125-1.28c0-.307.008-.567.025-.776a2.475,2.475,0,0,1,.11-.566,1.963,1.963,0,0,1,.682-1.013,1.875,1.875,0,0,1,1.186-.383,1.683,1.683,0,0,1,1.415.619c.014.014.027.017.036.01a.032.032,0,0,0,.017-.031v-.41A.093.093,0,0,1,251.141,791.512Zm-.115,3.315q.01-.231.01-.672,0-.535-.01-.718a1.7,1.7,0,0,0-.053-.341,1.247,1.247,0,0,0-.414-.729,1.225,1.225,0,0,0-.834-.288,1.264,1.264,0,0,0-.834.283,1.493,1.493,0,0,0-.478.734,3.816,3.816,0,0,0-.105,1.049,3.6,3.6,0,0,0,.105,1.059,1.309,1.309,0,0,0,1.311,1.017,1.252,1.252,0,0,0,.844-.283,1.227,1.227,0,0,0,.414-.724A2.627,2.627,0,0,0,251.025,794.827Z" transform="translate(-238.752 -789.372)" fill="#fff"></path><path id="Path_1753" data-name="Path 1753" d="M259.187,788.323a.616.616,0,0,1,0-.844.622.622,0,0,1,.839,0,.6.6,0,0,1-.839.844Zm.021,6.326v-5.1a.093.093,0,0,1,.105-.105h.534a.093.093,0,0,1,.105.105v5.1a.092.092,0,0,1-.105.1h-.534A.092.092,0,0,1,259.207,794.649Z" transform="translate(-244.479 -787.316)" fill="#fff"></path><path id="Path_1754" data-name="Path 1754" d="M266.351,790.851h-1.186a.037.037,0,0,0-.042.042v3.094a.927.927,0,0,0,.225.708,1.035,1.035,0,0,0,.708.2h.263a.093.093,0,0,1,.105.105v.43a.093.093,0,0,1-.105.1c-.085.007-.213.011-.388.011a1.929,1.929,0,0,1-1.143-.284,1.22,1.22,0,0,1-.389-1.049v-3.325a.037.037,0,0,0-.042-.042h-.64a.093.093,0,0,1-.1-.1v-.41a.093.093,0,0,1,.1-.1h.64a.037.037,0,0,0,.042-.042v-1.217a.093.093,0,0,1,.105-.1h.514a.093.093,0,0,1,.105.1v1.217a.037.037,0,0,0,.042.042h1.186a.092.092,0,0,1,.1.1v.41A.092.092,0,0,1,266.351,790.851Z" transform="translate(-246.775 -788.092)" fill="#fff"></path><path id="Path_1755" data-name="Path 1755" d="M275.111,791.91a1.673,1.673,0,0,1,.514,1.28v3.525a.093.093,0,0,1-.105.1h-.535a.093.093,0,0,1-.105-.1v-.43a.035.035,0,0,0-.016-.032c-.011-.007-.023,0-.036.01a1.635,1.635,0,0,1-.682.477,2.56,2.56,0,0,1-.934.163,2.02,2.02,0,0,1-1.248-.378,1.351,1.351,0,0,1-.5-1.154,1.5,1.5,0,0,1,.572-1.243,2.489,2.489,0,0,1,1.59-.456h1.216a.037.037,0,0,0,.042-.042v-.4a1.165,1.165,0,0,0-.3-.845,1.241,1.241,0,0,0-.929-.309,1.537,1.537,0,0,0-.818.194.815.815,0,0,0-.389.54.11.11,0,0,1-.125.094l-.567-.073c-.077-.014-.108-.041-.094-.083a1.351,1.351,0,0,1,.63-.955,2.39,2.39,0,0,1,1.363-.367A2.05,2.05,0,0,1,275.111,791.91Zm-.682,4.044a.962.962,0,0,0,.451-.834V794.3a.037.037,0,0,0-.042-.042h-1.1a1.96,1.96,0,0,0-1.113.283.9.9,0,0,0-.419.787.812.812,0,0,0,.32.7,1.373,1.373,0,0,0,.834.236A1.844,1.844,0,0,0,274.429,795.954Z" transform="translate(-250.699 -789.372)" fill="#fff"></path><path id="Path_1756" data-name="Path 1756" d="M282.895,794.764v-7.133a.093.093,0,0,1,.105-.1h.535a.093.093,0,0,1,.1.1v7.133a.093.093,0,0,1-.1.1H283A.093.093,0,0,1,282.895,794.764Z" transform="translate(-256.417 -787.421)" fill="#fff"></path><path id="Path_1757" data-name="Path 1757" d="M292.017,794.333a1.714,1.714,0,0,1-.687-1.426v-.326a.093.093,0,0,1,.1-.105h.514a.093.093,0,0,1,.105.105v.284a1.16,1.16,0,0,0,.5.98,2.3,2.3,0,0,0,1.395.373,1.908,1.908,0,0,0,1.228-.342,1.11,1.11,0,0,0,.42-.907,1.031,1.031,0,0,0-.194-.629,1.9,1.9,0,0,0-.6-.493,10.608,10.608,0,0,0-1.138-.536,11.973,11.973,0,0,1-1.222-.55,2.064,2.064,0,0,1-.7-.609,1.566,1.566,0,0,1-.267-.939,1.65,1.65,0,0,1,.614-1.369,2.636,2.636,0,0,1,1.683-.488,2.83,2.83,0,0,1,1.836.546,1.77,1.77,0,0,1,.672,1.448v.231a.093.093,0,0,1-.105.1h-.524a.093.093,0,0,1-.1-.1v-.189a1.23,1.23,0,0,0-.478-1,2.048,2.048,0,0,0-1.328-.388,1.855,1.855,0,0,0-1.143.3,1.039,1.039,0,0,0-.4.881.981.981,0,0,0,.194.625,1.647,1.647,0,0,0,.555.43q.363.184,1.118.477a10.265,10.265,0,0,1,1.233.587,2.479,2.479,0,0,1,.755.667,1.579,1.579,0,0,1,.289.96,1.711,1.711,0,0,1-.65,1.405,2.8,2.8,0,0,1-1.8.525A2.969,2.969,0,0,1,292.017,794.333Z" transform="translate(-260.635 -787.337)" fill="#fff"></path><path id="Path_1758" data-name="Path 1758" d="M304.715,796.516a1.987,1.987,0,0,1-.755-1.07,4.549,4.549,0,0,1-.147-1.29,4.441,4.441,0,0,1,.147-1.28,1.938,1.938,0,0,1,.745-1.059,2.221,2.221,0,0,1,1.322-.388,2.145,2.145,0,0,1,1.285.388,1.942,1.942,0,0,1,.739,1.049,4.369,4.369,0,0,1,.148,1.29,4.309,4.309,0,0,1-.148,1.29,1.941,1.941,0,0,1-.739,1.07,2.159,2.159,0,0,1-1.295.388A2.185,2.185,0,0,1,304.715,796.516Zm2.161-.54a1.361,1.361,0,0,0,.483-.75,4.591,4.591,0,0,0,.095-1.059,5.1,5.1,0,0,0-.084-1.06,1.357,1.357,0,0,0-.488-.75,1.392,1.392,0,0,0-.876-.278,1.335,1.335,0,0,0-1.354,1.028,6.767,6.767,0,0,0,0,2.119,1.308,1.308,0,0,0,.478.75,1.416,1.416,0,0,0,.887.278A1.356,1.356,0,0,0,306.876,795.976Z" transform="translate(-266.876 -789.372)" fill="#fff"></path><path id="Path_1759" data-name="Path 1759" d="M315.6,794.764v-7.133a.093.093,0,0,1,.105-.1h.535a.093.093,0,0,1,.1.1v7.133a.093.093,0,0,1-.1.1h-.535A.093.093,0,0,1,315.6,794.764Z" transform="translate(-272.772 -787.421)" fill="#fff"></path><path id="Path_1760" data-name="Path 1760" d="M323.661,791.6h.535a.093.093,0,0,1,.1.1v5.1a.093.093,0,0,1-.1.1h-.535a.093.093,0,0,1-.105-.1v-.451a.032.032,0,0,0-.021-.031.021.021,0,0,0-.031.01,1.564,1.564,0,0,1-1.4.651,2.109,2.109,0,0,1-.928-.2,1.6,1.6,0,0,1-.671-.593,1.706,1.706,0,0,1-.246-.934V791.7a.093.093,0,0,1,.105-.1h.534a.093.093,0,0,1,.1.1v3.326a1.317,1.317,0,0,0,.336.95,1.2,1.2,0,0,0,.913.351,1.217,1.217,0,0,0,1.3-1.3V791.7A.093.093,0,0,1,323.661,791.6Z" transform="translate(-275.101 -789.456)" fill="#fff"></path><path id="Path_1761" data-name="Path 1761" d="M333.49,790.851H332.3a.037.037,0,0,0-.042.042v3.094a.925.925,0,0,0,.225.708,1.033,1.033,0,0,0,.707.2h.263a.093.093,0,0,1,.105.105v.43a.093.093,0,0,1-.105.1c-.085.007-.214.011-.388.011a1.927,1.927,0,0,1-1.143-.284,1.22,1.22,0,0,1-.389-1.049v-3.325a.037.037,0,0,0-.042-.042h-.64a.093.093,0,0,1-.105-.1v-.41a.093.093,0,0,1,.105-.1h.64a.037.037,0,0,0,.042-.042v-1.217a.093.093,0,0,1,.1-.1h.514a.093.093,0,0,1,.105.1v1.217a.037.037,0,0,0,.042.042h1.185a.092.092,0,0,1,.1.1v.41A.093.093,0,0,1,333.49,790.851Z" transform="translate(-280.345 -788.092)" fill="#fff"></path><path id="Path_1762" data-name="Path 1762" d="M339.313,788.323a.617.617,0,0,1,0-.844.623.623,0,0,1,.839,0,.6.6,0,0,1-.839.844Zm.021,6.326v-5.1a.093.093,0,0,1,.1-.105h.535a.093.093,0,0,1,.105.105v5.1a.092.092,0,0,1-.105.1h-.535A.092.092,0,0,1,339.335,794.649Z" transform="translate(-284.543 -787.316)" fill="#fff"></path><path id="Path_1763" data-name="Path 1763" d="M345.208,796.516a1.986,1.986,0,0,1-.756-1.07,4.55,4.55,0,0,1-.147-1.29,4.441,4.441,0,0,1,.147-1.28,1.938,1.938,0,0,1,.745-1.059,2.221,2.221,0,0,1,1.322-.388,2.146,2.146,0,0,1,1.285.388,1.942,1.942,0,0,1,.74,1.049,4.367,4.367,0,0,1,.148,1.29,4.307,4.307,0,0,1-.148,1.29,1.941,1.941,0,0,1-.74,1.07,2.159,2.159,0,0,1-1.295.388A2.183,2.183,0,0,1,345.208,796.516Zm2.16-.54a1.362,1.362,0,0,0,.483-.75,4.591,4.591,0,0,0,.1-1.059,5.1,5.1,0,0,0-.084-1.06,1.357,1.357,0,0,0-.488-.75,1.393,1.393,0,0,0-.876-.278,1.334,1.334,0,0,0-1.354,1.028,6.769,6.769,0,0,0,0,2.119,1.308,1.308,0,0,0,.478.75,1.415,1.415,0,0,0,.887.278A1.356,1.356,0,0,0,347.369,795.976Z" transform="translate(-287.122 -789.372)" fill="#fff"></path><path id="Path_1764" data-name="Path 1764" d="M359.638,791.942a1.777,1.777,0,0,1,.5,1.322v3.461a.093.093,0,0,1-.1.105H359.5a.093.093,0,0,1-.105-.105V793.41a1.31,1.31,0,0,0-.351-.944,1.2,1.2,0,0,0-.907-.367,1.223,1.223,0,0,0-1.291,1.29v3.336a.093.093,0,0,1-.1.105H356.2a.093.093,0,0,1-.105-.105v-5.1a.093.093,0,0,1,.105-.1h.535a.093.093,0,0,1,.1.1v.452a.036.036,0,0,0,.016.031c.011.007.019,0,.027-.01a1.619,1.619,0,0,1,1.416-.651A1.819,1.819,0,0,1,359.638,791.942Z" transform="translate(-293.018 -789.383)" fill="#fff"></path><path id="Path_1765" data-name="Path 1765" d="M367.852,796.715a1.684,1.684,0,0,1-.7-.5,1.11,1.11,0,0,1-.247-.7v-.126a.093.093,0,0,1,.105-.1h.5a.093.093,0,0,1,.1.1v.084a.734.734,0,0,0,.362.6,1.527,1.527,0,0,0,.907.257,1.458,1.458,0,0,0,.881-.246.746.746,0,0,0,.336-.625.574.574,0,0,0-.173-.43,1.248,1.248,0,0,0-.409-.262c-.157-.063-.4-.143-.729-.241a7.46,7.46,0,0,1-.966-.336,1.775,1.775,0,0,1-.634-.467,1.123,1.123,0,0,1-.257-.76,1.276,1.276,0,0,1,.524-1.07,2.232,2.232,0,0,1,1.385-.4,2.6,2.6,0,0,1,1.023.189,1.584,1.584,0,0,1,.687.52,1.221,1.221,0,0,1,.241.739v.032a.093.093,0,0,1-.1.1H370.2a.093.093,0,0,1-.1-.1v-.032a.715.715,0,0,0-.342-.6,1.561,1.561,0,0,0-.918-.241,1.531,1.531,0,0,0-.86.215.672.672,0,0,0-.325.592.6.6,0,0,0,.315.546,4.3,4.3,0,0,0,.975.378,9.81,9.81,0,0,1,.986.336,1.8,1.8,0,0,1,.65.456,1.113,1.113,0,0,1,.273.781,1.3,1.3,0,0,1-.535,1.091,2.272,2.272,0,0,1-1.416.409A2.719,2.719,0,0,1,367.852,796.715Z" transform="translate(-298.421 -789.404)" fill="#fff"></path><path id="Path_1766" data-name="Path 1766" d="M386.815,794.722a.065.065,0,0,1-.022.042.085.085,0,0,1-.063.021h-.619a.179.179,0,0,1-.125-.063q-.4-.452-.609-.714a.039.039,0,0,0-.063,0,3.488,3.488,0,0,1-1.012.656,2.973,2.973,0,0,1-1.118.2,2.421,2.421,0,0,1-1.5-.435,1.492,1.492,0,0,1-.572-1.265,1.916,1.916,0,0,1,.414-1.238,5.288,5.288,0,0,1,1.159-1.017c.035-.014.039-.031.01-.052a7.7,7.7,0,0,1-.807-1.128,1.683,1.683,0,0,1-.2-.781,1.491,1.491,0,0,1,.483-1.148,1.813,1.813,0,0,1,1.28-.447,1.927,1.927,0,0,1,1.311.447,1.461,1.461,0,0,1,.514,1.159,1.7,1.7,0,0,1-.387,1.112,5.268,5.268,0,0,1-1.091.955c-.029.007-.032.024-.011.052q.482.6,1.207,1.427c.174.217.294.36.356.43a.039.039,0,0,0,.063,0q.41-.515.683-.9a.1.1,0,0,1,.146-.031l.4.231c.062.042.073.091.031.147a10.013,10.013,0,0,1-.839,1.091v.021a.155.155,0,0,0,.042.084q-.042-.053.734.871l.188.21A.087.087,0,0,1,386.815,794.722Zm-2.755-.677a3.227,3.227,0,0,0,.813-.55.039.039,0,0,0,0-.063l-.367-.44q-.284-.347-.43-.5l-.881-1.018c-.007-.021-.025-.024-.052-.011a4.411,4.411,0,0,0-.939.808,1.375,1.375,0,0,0-.33.9.932.932,0,0,0,.356.781,1.544,1.544,0,0,0,.976.278A2.037,2.037,0,0,0,384.06,794.045Zm-1.348-5.738a.9.9,0,0,0-.284.7,1.108,1.108,0,0,0,.158.535,7.861,7.861,0,0,0,.682.933.045.045,0,0,0,.063.011,5.037,5.037,0,0,0,.886-.745,1.133,1.133,0,0,0,.31-.777.828.828,0,0,0-.293-.661,1.137,1.137,0,0,0-.766-.252A1.083,1.083,0,0,0,382.712,788.306Z" transform="translate(-305.523 -787.337)" fill="#fff"></path><path id="Path_1767" data-name="Path 1767" d="M399.8,794.333a1.715,1.715,0,0,1-.687-1.426v-.326a.093.093,0,0,1,.1-.105h.514a.093.093,0,0,1,.105.105v.284a1.161,1.161,0,0,0,.5.98,2.3,2.3,0,0,0,1.395.373,1.909,1.909,0,0,0,1.228-.342,1.111,1.111,0,0,0,.419-.907,1.033,1.033,0,0,0-.194-.629,1.908,1.908,0,0,0-.6-.493,10.633,10.633,0,0,0-1.138-.536,11.962,11.962,0,0,1-1.222-.55,2.067,2.067,0,0,1-.7-.609,1.566,1.566,0,0,1-.267-.939,1.651,1.651,0,0,1,.614-1.369,2.637,2.637,0,0,1,1.684-.488,2.83,2.83,0,0,1,1.836.546,1.771,1.771,0,0,1,.671,1.448v.231a.093.093,0,0,1-.105.1h-.524a.093.093,0,0,1-.1-.1v-.189a1.229,1.229,0,0,0-.477-1,2.049,2.049,0,0,0-1.328-.388,1.856,1.856,0,0,0-1.143.3,1.039,1.039,0,0,0-.4.881.981.981,0,0,0,.194.625,1.647,1.647,0,0,0,.556.43q.362.184,1.117.477a10.34,10.34,0,0,1,1.233.587,2.486,2.486,0,0,1,.755.667,1.58,1.58,0,0,1,.288.96,1.712,1.712,0,0,1-.651,1.405,2.8,2.8,0,0,1-1.805.525A2.967,2.967,0,0,1,399.8,794.333Z" transform="translate(-314.524 -787.337)" fill="#fff"></path><path id="Path_1768" data-name="Path 1768" d="M415.9,794.009v.336a.093.093,0,0,1-.105.1h-3.388a.037.037,0,0,0-.041.042,4.61,4.61,0,0,0,.063.745,1.255,1.255,0,0,0,.493.745,1.61,1.61,0,0,0,.965.273,1.491,1.491,0,0,0,.776-.2,1.365,1.365,0,0,0,.525-.566c.043-.063.091-.077.146-.042l.41.242a.105.105,0,0,1,.042.146,1.887,1.887,0,0,1-.788.792,2.461,2.461,0,0,1-1.206.289,2.212,2.212,0,0,1-1.249-.357,1.914,1.914,0,0,1-.724-.965,4.311,4.311,0,0,1-.188-1.448q0-.44.015-.719a2.268,2.268,0,0,1,.079-.5,1.946,1.946,0,0,1,.719-1.091,2.1,2.1,0,0,1,1.306-.409,2.067,2.067,0,0,1,1.469.482,2.241,2.241,0,0,1,.641,1.364A5.519,5.519,0,0,1,415.9,794.009Zm-3.006-1.663a1.24,1.24,0,0,0-.446.718,3.367,3.367,0,0,0-.083.713.037.037,0,0,0,.041.042h2.717a.037.037,0,0,0,.042-.042,4.717,4.717,0,0,0-.063-.672,1.32,1.32,0,0,0-.467-.75,1.38,1.38,0,0,0-.886-.278A1.347,1.347,0,0,0,412.9,792.346Z" transform="translate(-320.787 -789.372)" fill="#fff"></path><path id="Path_1769" data-name="Path 1769" d="M425.871,791.627a.111.111,0,0,1,.064.137l-.116.514a.089.089,0,0,1-.137.063,1.076,1.076,0,0,0-.409-.074l-.137.011a1.252,1.252,0,0,0-.9.4,1.37,1.37,0,0,0-.357.971v3.094a.092.092,0,0,1-.1.1h-.535a.093.093,0,0,1-.1-.1v-5.1a.093.093,0,0,1,.1-.1h.535a.092.092,0,0,1,.1.1v.64c0,.021.006.034.016.037s.018,0,.026-.015a1.661,1.661,0,0,1,.561-.6,1.457,1.457,0,0,1,.792-.215A1.232,1.232,0,0,1,425.871,791.627Z" transform="translate(-326.536 -789.404)" fill="#fff"></path><path id="Path_1770" data-name="Path 1770" d="M432.082,796.82l-1.72-5.108-.011-.042q0-.073.094-.073h.6a.122.122,0,0,1,.126.084l1.311,4.112a.034.034,0,0,0,.063,0l1.311-4.112a.123.123,0,0,1,.126-.084l.6.01c.077,0,.1.039.085.115l-1.721,5.1a.121.121,0,0,1-.125.084h-.609A.12.12,0,0,1,432.082,796.82Z" transform="translate(-330.145 -789.456)" fill="#fff"></path><path id="Path_1771" data-name="Path 1771" d="M441.323,788.323a.617.617,0,0,1,0-.844.623.623,0,0,1,.839,0,.6.6,0,0,1-.839.844Zm.021,6.326v-5.1a.093.093,0,0,1,.1-.105h.535a.093.093,0,0,1,.105.105v5.1a.092.092,0,0,1-.105.1h-.535A.092.092,0,0,1,441.345,794.649Z" transform="translate(-335.547 -787.316)" fill="#fff"></path><path id="Path_1772" data-name="Path 1772" d="M447.214,796.511a1.971,1.971,0,0,1-.739-1.065,4.829,4.829,0,0,1-.136-1.3,5.173,5.173,0,0,1,.136-1.28,1.908,1.908,0,0,1,.734-1.044,2.162,2.162,0,0,1,1.3-.394,2.274,2.274,0,0,1,1.327.388,1.756,1.756,0,0,1,.729.965,1.786,1.786,0,0,1,.064.315v.021c0,.049-.032.081-.094.094l-.525.073h-.021c-.049,0-.081-.031-.095-.095l-.032-.157a1.181,1.181,0,0,0-.461-.677,1.433,1.433,0,0,0-.892-.278,1.365,1.365,0,0,0-.876.278,1.268,1.268,0,0,0-.457.739,4.834,4.834,0,0,0-.094,1.06,4.722,4.722,0,0,0,.094,1.07,1.274,1.274,0,0,0,.457.75,1.369,1.369,0,0,0,.876.278,1.476,1.476,0,0,0,.886-.268,1.131,1.131,0,0,0,.467-.687v-.042l.011-.042c.008-.07.05-.1.126-.084l.514.084c.07.015.1.052.1.115l-.043.21a1.659,1.659,0,0,1-.723.986,2.346,2.346,0,0,1-1.332.378A2.142,2.142,0,0,1,447.214,796.511Z" transform="translate(-338.138 -789.372)" fill="#fff"></path><path id="Path_1773" data-name="Path 1773" d="M461.478,794.009v.336a.093.093,0,0,1-.105.1h-3.388a.037.037,0,0,0-.042.042,4.523,4.523,0,0,0,.063.745,1.253,1.253,0,0,0,.492.745,1.608,1.608,0,0,0,.966.273,1.493,1.493,0,0,0,.776-.2,1.367,1.367,0,0,0,.524-.566c.043-.063.092-.077.147-.042l.41.242a.1.1,0,0,1,.041.146,1.886,1.886,0,0,1-.787.792,2.462,2.462,0,0,1-1.207.289,2.212,2.212,0,0,1-1.248-.357,1.914,1.914,0,0,1-.724-.965,4.3,4.3,0,0,1-.189-1.448q0-.44.015-.719a2.3,2.3,0,0,1,.079-.5,1.947,1.947,0,0,1,.718-1.091,2.1,2.1,0,0,1,1.307-.409,2.067,2.067,0,0,1,1.469.482,2.243,2.243,0,0,1,.64,1.364A5.425,5.425,0,0,1,461.478,794.009Zm-3.006-1.663a1.242,1.242,0,0,0-.446.718,3.4,3.4,0,0,0-.083.713.037.037,0,0,0,.042.042H460.7a.037.037,0,0,0,.042-.042,4.8,4.8,0,0,0-.063-.672,1.322,1.322,0,0,0-.467-.75,1.382,1.382,0,0,0-.886-.278A1.345,1.345,0,0,0,458.472,792.346Z" transform="translate(-343.573 -789.372)" fill="#fff"></path><path id="Path_1774" data-name="Path 1774" d="M468.96,796.715a1.686,1.686,0,0,1-.7-.5,1.11,1.11,0,0,1-.247-.7v-.126a.093.093,0,0,1,.1-.1h.5a.093.093,0,0,1,.105.1v.084a.734.734,0,0,0,.362.6,1.528,1.528,0,0,0,.908.257,1.461,1.461,0,0,0,.881-.246.747.747,0,0,0,.336-.625.575.575,0,0,0-.173-.43,1.251,1.251,0,0,0-.409-.262c-.157-.063-.4-.143-.729-.241a7.419,7.419,0,0,1-.966-.336,1.777,1.777,0,0,1-.634-.467,1.123,1.123,0,0,1-.257-.76,1.274,1.274,0,0,1,.524-1.07,2.231,2.231,0,0,1,1.384-.4,2.606,2.606,0,0,1,1.023.189,1.581,1.581,0,0,1,.687.52,1.218,1.218,0,0,1,.242.739v.032a.093.093,0,0,1-.105.1h-.492a.093.093,0,0,1-.105-.1v-.032a.715.715,0,0,0-.341-.6,1.56,1.56,0,0,0-.918-.241,1.532,1.532,0,0,0-.86.215.673.673,0,0,0-.325.592.6.6,0,0,0,.314.546,4.309,4.309,0,0,0,.976.378,9.85,9.85,0,0,1,.986.336,1.812,1.812,0,0,1,.651.456,1.114,1.114,0,0,1,.272.781,1.3,1.3,0,0,1-.535,1.091A2.273,2.273,0,0,1,470,796.9,2.715,2.715,0,0,1,468.96,796.715Z" transform="translate(-348.975 -789.404)" fill="#fff"></path></g><g id="Group_1390" data-name="Group 1390" transform="translate(161.576 710.279)"><path id="Path_1775" data-name="Path 1775" d="M230.841,747.847a.52.52,0,0,1-.141-.386v-23.5a.486.486,0,0,1,.526-.526h9.015a12.2,12.2,0,0,1,5.032.982,7.762,7.762,0,0,1,3.385,2.771,7.288,7.288,0,0,1,1.193,4.138V740.1a7.287,7.287,0,0,1-1.193,4.138A7.756,7.756,0,0,1,245.273,747a12.184,12.184,0,0,1-5.032.982h-9.015A.521.521,0,0,1,230.841,747.847Zm6.628-5.507h3.016a2.441,2.441,0,0,0,1.964-.93,3.842,3.842,0,0,0,.807-2.438v-6.524a3.7,3.7,0,0,0-.772-2.438,2.514,2.514,0,0,0-2.034-.929h-2.981a.155.155,0,0,0-.175.176v12.907A.155.155,0,0,0,237.469,742.34Z" transform="translate(-230.7 -723.154)" fill="#4169e1"></path><path id="Path_1776" data-name="Path 1776" d="M274.192,747.847a.521.521,0,0,1-.141-.386v-23.5a.485.485,0,0,1,.526-.526h5.542a.485.485,0,0,1,.526.526v23.5a.484.484,0,0,1-.526.526h-5.542A.522.522,0,0,1,274.192,747.847Z" transform="translate(-252.376 -723.154)" fill="#4169e1"></path><path id="Path_1777" data-name="Path 1777" d="M296.692,746.83a8.318,8.318,0,0,1-3.4-3.262,9.535,9.535,0,0,1-1.21-4.84V732.1a9.444,9.444,0,0,1,1.21-4.823,8.356,8.356,0,0,1,3.4-3.244,10.685,10.685,0,0,1,5.068-1.158,11.071,11.071,0,0,1,5.016,1.1,8.413,8.413,0,0,1,3.42,3,7.539,7.539,0,0,1,1.21,4.138v.035a.485.485,0,0,1-.526.527h-5.507q-.526,0-.526-.316a2.76,2.76,0,0,0-.825-2,3.021,3.021,0,0,0-2.263-.842,2.883,2.883,0,0,0-2.245.929,3.549,3.549,0,0,0-.841,2.473v7.015a3.271,3.271,0,0,0,3.367,3.4,3.112,3.112,0,0,0,2.122-.719,2.492,2.492,0,0,0,.824-1.982v-.456a.155.155,0,0,0-.175-.175h-3.088a.485.485,0,0,1-.526-.526v-4.209a.485.485,0,0,1,.526-.526h9.155a.485.485,0,0,1,.526.526v4.8a8.881,8.881,0,0,1-1.21,4.63,8.223,8.223,0,0,1-3.4,3.157,10.884,10.884,0,0,1-5.034,1.123A10.687,10.687,0,0,1,296.692,746.83Z" transform="translate(-261.39 -722.874)" fill="#4169e1"></path><path id="Path_1778" data-name="Path 1778" d="M335.711,747.847a.52.52,0,0,1-.141-.386v-23.5a.486.486,0,0,1,.526-.526h5.542a.485.485,0,0,1,.526.526v23.5a.485.485,0,0,1-.526.526H336.1A.521.521,0,0,1,335.711,747.847Z" transform="translate(-283.135 -723.154)" fill="#4169e1"></path><path id="Path_1779" data-name="Path 1779" d="M372.223,723.575a.525.525,0,0,1,.14.386v4.63a.485.485,0,0,1-.526.526h-5.893a.155.155,0,0,0-.175.176v18.168a.484.484,0,0,1-.526.526H359.7a.484.484,0,0,1-.525-.526V729.293a.156.156,0,0,0-.176-.176h-5.717a.486.486,0,0,1-.527-.526v-4.63a.486.486,0,0,1,.527-.526h18.554A.526.526,0,0,1,372.223,723.575Z" transform="translate(-291.728 -723.154)" fill="#4169e1"></path><path id="Path_1780" data-name="Path 1780" d="M396.108,747.847a.519.519,0,0,1-.141-.386v-23.5a.486.486,0,0,1,.526-.526h5.543a.485.485,0,0,1,.526.526v23.5a.484.484,0,0,1-.526.526h-5.543A.521.521,0,0,1,396.108,747.847Z" transform="translate(-313.333 -723.154)" fill="#4169e1"></path><path id="Path_1781" data-name="Path 1781" d="M428.516,723.575a.522.522,0,0,1,.385-.14h5.542a.486.486,0,0,1,.526.526v23.5a.486.486,0,0,1-.526.526h-5.3a.689.689,0,0,1-.632-.351l-7.155-11.925c-.047-.07-.094-.1-.14-.088s-.07.065-.07.158l.07,11.68a.484.484,0,0,1-.526.526h-5.543a.485.485,0,0,1-.525-.526v-23.5a.485.485,0,0,1,.525-.526h5.3a.691.691,0,0,1,.632.351l7.12,11.925c.047.07.094.1.141.088s.07-.064.07-.158l-.035-11.679A.521.521,0,0,1,428.516,723.575Z" transform="translate(-322.663 -723.154)" fill="#4169e1"></path><path id="Path_1782" data-name="Path 1782" d="M476,747.531l-.771-2.736c-.047-.093-.106-.141-.175-.141H467.62c-.07,0-.128.047-.176.141l-.771,2.736a.548.548,0,0,1-.6.456h-6c-.421,0-.573-.2-.456-.6l7.4-23.535a.573.573,0,0,1,.6-.421h7.436a.572.572,0,0,1,.6.421l7.4,23.535a.487.487,0,0,1,.035.21c0,.258-.164.386-.492.386h-6A.546.546,0,0,1,476,747.531Zm-6.875-7.927h4.385c.14,0,.187-.07.14-.211l-2.245-7.857c-.024-.07-.059-.105-.1-.105s-.083.035-.106.105l-2.209,7.857C468.965,739.534,469.011,739.6,469.128,739.6Z" transform="translate(-345.142 -723.154)" fill="#4169e1"></path><path id="Path_1783" data-name="Path 1783" d="M523.18,747.6l-3.859-8.909a.225.225,0,0,0-.21-.141h-1.474a.155.155,0,0,0-.175.176v8.734a.484.484,0,0,1-.526.526h-5.543a.485.485,0,0,1-.525-.526v-23.5a.485.485,0,0,1,.525-.526h10.629a8.642,8.642,0,0,1,4.191.982,7,7,0,0,1,2.806,2.753,8.173,8.173,0,0,1,1,4.086,7.219,7.219,0,0,1-1.14,4.051,6.623,6.623,0,0,1-3.139,2.543.166.166,0,0,0-.106.245l4.455,9.26a1.526,1.526,0,0,1,.07.245.335.335,0,0,1-.14.281.571.571,0,0,1-.351.1h-5.892A.57.57,0,0,1,523.18,747.6Zm-5.717-18.344v4.1a.155.155,0,0,0,.175.175h3.3a2.669,2.669,0,0,0,1.823-.613,2.021,2.021,0,0,0,.7-1.6,2.063,2.063,0,0,0-.7-1.631,2.671,2.671,0,0,0-1.823-.613h-3.3A.155.155,0,0,0,517.463,729.258Z" transform="translate(-370.784 -723.154)" fill="#4169e1"></path><path id="Path_1784" data-name="Path 1784" d="M557.554,747.777a.521.521,0,0,1-.141-.386v-7.752l-.035-.211-7.155-15.363-.07-.281q0-.35.455-.351h6.033a.633.633,0,0,1,.632.421l3.332,8.383q.105.246.21,0l3.333-8.383a.632.632,0,0,1,.632-.421h6.067q.456,0,.456.351l-.07.281-7.225,15.363a.484.484,0,0,0-.035.211v7.752a.486.486,0,0,1-.526.526h-5.508A.522.522,0,0,1,557.554,747.777Z" transform="translate(-390.427 -723.154)" fill="#4169e1"></path></g><path id="Path_1785" data-name="Path 1785" d="M142.186,697.683v19.766l-4.663-2.692-10.879,6.282v12.586l10.879,6.281,10.879-6.281V701.272Zm0,32.353-4.663,2.691-4.663-2.691v-5.407l4.663-2.693,4.663,2.693Z" transform="translate(-17.096)" fill="#4169e1"></path><path id="Path_1786" data-name="Path 1786" d="M142.186,708.45v32.38l-21.759,12.562L98.669,740.83v-25.2l15.542-8.973v-7.179L92.452,712.039v32.38l27.975,16.151L148.4,744.42v-32.38Z" transform="translate(0 -0.897)" fill="#4169e1"></path><path id="Path_1787" data-name="Path 1787" d="M148.4,778.594l-21.759,12.562-21.759-12.562v7.179l21.759,12.562,27.975-16.151V775l-6.217,3.589Z" transform="translate(-6.217 -38.661)" fill="#fff"></path></g></svg>